<?xml version="1.0" encoding="UTF-8" ?>
<svg xmlns="http://www.w3.org/2000/svg" version="1.0" width="20" height="20">
  <defs>
    <filter id="filter">
      <feGaussianBlur stdDeviation="0.4858" />
    </filter>
  </defs>
  <g transform="matrix(0.9705945,0,0,0.9705945,0.2697479,0.1796066)">
    <path d="M 16.277875,5.5475381 C 16.208463,5.4781257 16.119691,5.4848123 15.601902,5.7244951 C 15.540787,5.7527851 15.317001,5.910299 15.317001,5.910299 C 15.317002,5.9102997 15.200586,5.8045011 15.171897,5.7758122 C 15.116432,5.7203471 14.991967,5.6947887 14.894075,5.7174167 C 14.590361,5.7876169 13.379103,6.6342767 12.905084,7.108295 C 12.610923,7.4024563 12.40997,7.5541092 12.328206,7.5436078 C 12.259207,7.5347464 11.962354,7.4232958 11.669927,7.2958688 C 11.153951,7.0710292 11.05245,6.986809 8.2298918,4.4504077 C 5.9946875,2.441814 5.2733964,1.8272176 5.1101488,1.7907508 C 4.6575089,1.6896405 4.2370068,2.0813096 3.7121922,3.0931508 L 3.4414488,3.6151735 C 3.4414488,3.6151735 8.8917092,11.227844 8.8917092,11.227844 L 5.4251309,15.791552 L 5.2393275,15.687148 C 5.1374854,15.629472 4.5427357,15.152567 3.9174622,14.627178 C 3.2921867,14.101791 2.7214584,13.66599 2.6486833,13.659226 C 2.3561193,13.632035 1.4359143,14.803518 1.6117186,14.979322 C 1.8891953,15.256799 2.7771578,16.420682 2.7867097,16.518844 C 2.7935283,16.588928 3.556416,17.589377 3.8962265,17.929187 C 4.2360369,18.268998 5.2364865,19.031885 5.3065701,19.038704 C 5.4047312,19.048256 6.5686147,19.936219 6.8460923,20.213696 C 7.0218967,20.3895 8.1933796,19.469295 8.1661875,19.17673 C 8.1594242,19.103955 7.7236233,18.533228 7.1982364,17.907952 C 6.6728477,17.282679 6.1959429,16.687929 6.1382658,16.586086 L 6.0338622,16.400283 L 10.597567,12.933704 C 10.597567,12.933704 18.21024,18.383965 18.21024,18.383966 L 18.732262,18.113221 C 19.744104,17.588407 20.135773,17.167905 20.034662,16.715265 C 19.998195,16.552017 19.383601,15.830727 17.375006,13.595522 C 14.838605,10.772962 14.754385,10.671463 14.529545,10.155486 C 14.402118,9.8630596 14.290669,9.5662076 14.281805,9.4972075 C 14.271305,9.415444 14.422959,9.2144922 14.717119,8.9203298 C 15.191138,8.4463117 16.037797,7.235053 16.107997,6.9313385 C 16.130625,6.8334464 16.105067,6.7089827 16.049602,6.6535169 C 16.020912,6.6248272 15.916884,6.5101816 15.916884,6.5101816 C 15.916884,6.5101816 16.074399,6.2863964 16.102688,6.2252817 C 16.34237,5.7074916 16.347289,5.616952 16.277875,5.5475381 z " fill-opacity="0.2" filter="url(#filter)" />
    <path d="M 14.688294,3.772212 C 14.618882,3.7027996 14.53011,3.7094862 14.012321,3.949169 C 13.951206,3.977459 13.72742,4.1349729 13.72742,4.1349729 C 13.727421,4.1349736 13.611005,4.029175 13.582316,4.0004861 C 13.526851,3.945021 13.402386,3.9194626 13.304494,3.9420906 C 13.00078,4.0122908 11.789522,4.8589506 11.315503,5.3329689 C 11.021342,5.6271302 10.820389,5.7787831 10.738625,5.7682817 C 10.669626,5.7594203 10.372773,5.6479697 10.080346,5.5205427 C 9.5643695,5.2957031 9.4628688,5.2114829 6.6403088,2.6750816 C 4.4051045,0.66648791 3.6838134,0.051891521 3.5205658,0.015424733 C 3.0679259,-0.085685512 2.6474238,0.30598357 2.1226092,1.3178247 L 1.8518658,1.8398474 C 1.8518658,1.8398474 7.3021265,9.4525165 7.3021265,9.4525165 L 3.8355479,14.016225 L 3.6497445,13.911821 C 3.5479024,13.854145 2.9531527,13.37724 2.3278792,12.851851 C 1.7026037,12.326464 1.1318754,11.890663 1.0591003,11.883899 C 0.76653638,11.856708 -0.15366874,13.028191 0.0221356,13.203995 C 0.29961228,13.481472 1.1875748,14.645355 1.1971267,14.743517 C 1.2039453,14.813601 1.966833,15.81405 2.3066435,16.15386 C 2.6464539,16.493671 3.6469035,17.256558 3.7169871,17.263377 C 3.8151482,17.272929 4.9790317,18.160892 5.2565093,18.438369 C 5.4323137,18.614173 6.6037966,17.693968 6.5766045,17.401403 C 6.5698412,17.328628 6.1340403,16.757901 5.6086534,16.132625 C 5.0832647,15.507352 4.6063599,14.912602 4.5486828,14.810759 L 4.4442792,14.624956 L 9.0079874,11.158377 C 9.0079874,11.158377 16.620659,16.608638 16.620659,16.608639 L 17.142681,16.337894 C 18.154523,15.81308 18.546192,15.392578 18.445081,14.939938 C 18.408614,14.77669 17.79402,14.0554 15.785425,11.820195 C 13.249024,8.997635 13.164804,8.8961354 12.939964,8.3801608 C 12.812537,8.0877335 12.701088,7.7908815 12.692224,7.7218814 C 12.681724,7.6401179 12.833378,7.4391661 13.127538,7.1450037 C 13.601557,6.6709856 14.448216,5.4597269 14.518416,5.1560124 C 14.541044,5.0581203 14.515486,4.9336566 14.460021,4.8781908 C 14.431331,4.8495011 14.327303,4.7348555 14.327303,4.7348555 C 14.327303,4.7348555 14.484818,4.5110703 14.513107,4.4499556 C 14.752789,3.9321655 14.757708,3.8416259 14.688294,3.772212 z " fill="#505050" />
  </g>
</svg>