<?xml version="1.0" encoding="utf-8"?>
<!-- Generator: Adobe Illustrator 14.0.0, SVG Export Plug-In . SVG Version: 6.00 Build 43363)  -->
<!DOCTYPE svg PUBLIC "-//W3C//DTD SVG 1.1//EN" "http://www.w3.org/Graphics/SVG/1.1/DTD/svg11.dtd">
<svg version="1.1" id="Layer_1" xmlns="http://www.w3.org/2000/svg" xmlns:xlink="http://www.w3.org/1999/xlink" x="0px" y="0px"
	 width="200px" height="41px" viewBox="0 0 200 41" enable-background="new 0 0 200 41" xml:space="preserve">
<g>
	<polygon fill-rule="evenodd" clip-rule="evenodd" fill="#00529C" points="133.356,17.101 139.803,4.463 139.916,4.463 
		147.045,17.101 154.372,17.101 144.916,0.771 138.724,0.771 130.175,17.101 133.356,17.101 	"/>
	<path fill-rule="evenodd" clip-rule="evenodd" fill="#00529C" d="M31.996,9.973l10.111-0.113c-0.114,2.272-1.42,3.55-2.102,4.089
		c-1.675,1.278-4.061,1.392-5.197,1.392c-1.676,0-3.124-0.229-4.601-1.08c-0.938-0.54-2.017-1.449-2.556-2.215l-0.455-0.653
		l-3.294,1.817c0.966,1.08,2.471,2.158,4.061,2.924c2.442,1.166,4.686,1.45,7.413,1.45c2.896,0,7.413-0.399,10.678-2.756
		c2.272-1.647,3.323-3.89,3.323-5.878c0-1.988-1.051-4.26-3.323-5.879c-2.812-2.044-6.929-2.754-10.593-2.754
		c-2.386,0-4.573,0.227-6.788,1.022c-1.846,0.625-3.294,1.477-4.771,2.726l3.294,1.79l0.795-0.824
		c0.653-0.71,1.761-1.363,2.755-1.761c1.335-0.568,2.727-0.738,4.175-0.738c2.926,0,4.601,0.909,5.538,1.789
		c0.625,0.569,1.449,1.648,1.647,3.295L31.996,7.474V9.973L31.996,9.973z"/>
	<path fill-rule="evenodd" clip-rule="evenodd" fill="#00529C" d="M166.556,2.305c1.647,0,3.521,0.341,4.971,2.13
		c1.164,1.42,1.362,3.068,1.362,4.516c0,1.449-0.198,3.067-1.362,4.515c-1.45,1.79-3.323,2.13-4.971,2.13s-3.521-0.34-4.97-2.13
		c-1.165-1.448-1.363-3.066-1.363-4.515c0-1.448,0.198-3.096,1.363-4.516C163.034,2.646,164.908,2.305,166.556,2.305L166.556,2.305z
		 M166.556,17.585c3.068,0,7.355-0.682,10.225-2.756c2.271-1.618,3.352-3.918,3.352-5.878c0-1.959-1.08-4.26-3.352-5.879
		c-2.869-2.073-7.156-2.754-10.225-2.754c-3.038,0-7.355,0.681-10.252,2.754c-2.271,1.619-3.323,3.92-3.323,5.879
		c0,1.96,1.052,4.26,3.323,5.878C159.2,16.903,163.518,17.585,166.556,17.585L166.556,17.585z"/>
	<path fill-rule="evenodd" clip-rule="evenodd" fill="#00529C" d="M110.238,4.89c0.625-0.199,1.363-0.313,2.103-0.313h0.767v8.491
		h-0.767c-0.739,0-1.478-0.113-2.103-0.312c-0.567-0.171-1.08-0.398-1.477-0.738c-0.766-0.597-1.392-1.591-1.392-3.21
		c0-1.59,0.626-2.583,1.392-3.18C109.158,5.287,109.671,5.06,110.238,4.89L110.238,4.89z M122.109,15.142
		c3.664-0.227,5.595-1.079,6.617-1.704c1.933-1.164,2.813-2.811,2.813-4.629c0-2.385-1.563-3.805-2.813-4.6
		c-1.732-1.107-4.175-1.563-6.617-1.705c-0.652-0.056-1.307-0.056-1.96-0.056h-0.709V0.204h-6.561v2.244h-0.683
		c-0.652,0-1.306,0-1.959,0.056c-2.471,0.142-4.912,0.597-6.617,1.705c-1.249,0.795-2.812,2.215-2.812,4.6
		c0,1.818,0.88,3.465,2.812,4.629c0.993,0.625,2.925,1.478,6.617,1.704c0.597,0.029,1.25,0.056,1.959,0.056h0.683v2.387h6.561
		v-2.387h0.709C120.86,15.198,121.514,15.171,122.109,15.142L122.109,15.142z M122.109,4.89c0.568,0.17,1.08,0.397,1.479,0.738
		c0.766,0.597,1.39,1.59,1.39,3.18c0,1.619-0.624,2.613-1.39,3.21c-0.398,0.34-0.91,0.567-1.479,0.738
		c-0.652,0.199-1.363,0.312-2.131,0.312h-0.738V4.577h0.738C120.746,4.577,121.457,4.69,122.109,4.89L122.109,4.89z"/>
	<path fill-rule="evenodd" clip-rule="evenodd" fill="#00529C" d="M86.354,2.305c1.62,0,3.521,0.341,4.97,2.13
		c1.165,1.42,1.363,3.068,1.363,4.516c0,1.449-0.199,3.067-1.363,4.515c-1.449,1.79-3.351,2.13-4.97,2.13
		c-1.647,0-3.55-0.34-4.998-2.13c-1.165-1.448-1.334-3.066-1.334-4.515c0-1.448,0.17-3.096,1.334-4.516
		C82.804,2.646,84.707,2.305,86.354,2.305L86.354,2.305z M86.354,17.585c3.039,0,7.356-0.682,10.224-2.756
		c2.244-1.618,3.294-3.918,3.294-5.878c0-1.959-1.051-4.26-3.294-5.879c-2.868-2.073-7.186-2.754-10.224-2.754
		c-3.067,0-7.384,0.681-10.252,2.754c-2.272,1.619-3.323,3.92-3.323,5.879c0,1.96,1.051,4.26,3.323,5.878
		C78.97,16.903,83.287,17.585,86.354,17.585L86.354,17.585z"/>
	<path fill-rule="evenodd" clip-rule="evenodd" fill="#00529C" d="M61.589,11.109h1.222c3.152,0,5.339-0.341,6.901-1.25
		c1.959-1.165,2.414-2.755,2.414-4.004c0-1.222-0.455-2.812-2.414-3.919c-1.562-0.881-3.664-1.165-7.185-1.165h-0.938H51.308v16.33
		h6.561v-5.992H61.589L61.589,11.109z M61.589,3.27c0.795,0.029,1.818,0.171,2.556,0.625c0.994,0.624,1.165,1.477,1.165,1.988
		c0,0.511-0.143,1.42-1.221,2.073c-0.739,0.483-1.647,0.625-2.5,0.682c-0.227,0-0.454,0-0.682,0h-3.039V3.243h3.039
		C61.106,3.243,61.333,3.243,61.589,3.27L61.589,3.27z"/>
	<path fill-rule="evenodd" clip-rule="evenodd" fill="#00529C" d="M10.81,4.606l3.266,5.565H7.543l3.096-5.679h0.085L10.81,4.606
		L10.81,4.606z M15.411,12.387l2.812,4.714h7.327l-9.94-16.33H9.531L0.5,17.101h3.266l2.584-4.714H15.411L15.411,12.387z"/>
	<polygon fill-rule="evenodd" clip-rule="evenodd" fill="#00529C" points="178.825,3.243 185.868,3.243 185.868,17.101 
		192.429,17.101 192.429,3.243 199.5,3.243 199.5,0.771 178.825,0.771 178.825,3.243 	"/>
	<polygon fill-rule="evenodd" clip-rule="evenodd" fill="#00529C" points="192.77,28.205 191.69,28.205 187.373,32.381 
		188.821,28.205 187.715,28.205 185.783,33.885 186.891,33.885 191.18,29.682 189.759,33.885 190.866,33.885 192.77,28.205 	"/>
	<polygon fill-rule="evenodd" clip-rule="evenodd" fill="#00529C" points="186.066,28.205 184.988,28.205 184.221,30.422 
		181.522,30.422 182.29,28.205 181.183,28.205 179.25,33.885 180.358,33.885 181.239,31.244 183.937,31.244 183.028,33.885 
		184.165,33.885 186.066,28.205 	"/>
	<polygon fill-rule="evenodd" clip-rule="evenodd" fill="#00529C" points="179.535,28.205 178.456,28.205 174.139,32.381 
		175.559,28.205 174.479,28.205 172.549,33.885 173.627,33.885 177.945,29.682 176.524,33.885 177.604,33.885 179.535,28.205 	"/>
	<path fill-rule="evenodd" clip-rule="evenodd" fill="#00529C" d="M169.453,28.205l-0.653,1.621
		c-0.284,0.766-0.398,1.021-0.683,1.617c-0.369,0.797-0.738,1.563-1.702,1.789l-0.172,0.738c0.568-0.027,0.994-0.256,1.279-0.424
		c1.106-0.711,1.476-1.934,2.3-3.922l0.283-0.68h1.363l-1.646,4.939h1.078l1.932-5.68H169.453L169.453,28.205z"/>
	<path fill-rule="evenodd" clip-rule="evenodd" fill="#00529C" d="M145.256,31.273c0.142-0.029,0.341-0.029,0.567-0.029h0.796
		l-0.397,1.193c-0.171,0.227-0.341,0.369-0.569,0.51c-0.14,0.086-0.282,0.143-0.396,0.17c-0.199,0.086-0.397,0.115-0.597,0.115
		c-0.228,0-0.511-0.029-0.682-0.256c-0.143-0.199-0.143-0.426-0.057-0.711c0.086-0.225,0.228-0.451,0.54-0.682
		C144.63,31.471,144.858,31.33,145.256,31.273L145.256,31.273z M145.853,33.885h0.965l1.25-3.691
		c0.199-0.568,0.426-1.135,0.113-1.619c-0.255-0.369-0.88-0.512-1.392-0.512c-0.652,0-1.137,0.086-1.533,0.229
		c-0.824,0.313-1.193,0.854-1.222,1.334l0.965,0.057c0.058-0.197,0.143-0.34,0.257-0.455c0.257-0.311,0.683-0.396,1.221-0.396
		c0.228,0,0.511,0.029,0.626,0.229c0.171,0.197,0.085,0.482,0,0.738l-0.228,0.736h-0.824c-0.284,0-0.538,0-0.795,0.029
		c-1.107,0.141-2.044,0.596-2.442,1.762c-0.313,0.879,0,1.646,1.249,1.646c0.369,0,0.767-0.027,1.164-0.227h0.029
		c0.396-0.197,0.709-0.482,0.795-0.568h0.028L145.853,33.885L145.853,33.885z"/>
	<path fill-rule="evenodd" clip-rule="evenodd" fill="#00529C" d="M163.972,31.273c0.17-0.029,0.341-0.029,0.568-0.029h0.824
		l-0.427,1.193c-0.172,0.227-0.341,0.369-0.568,0.51c-0.142,0.086-0.284,0.143-0.397,0.17c-0.199,0.086-0.368,0.115-0.568,0.115
		c-0.256,0-0.538-0.029-0.682-0.256c-0.17-0.199-0.17-0.426-0.085-0.711c0.085-0.225,0.229-0.451,0.54-0.682
		C163.347,31.471,163.574,31.33,163.972,31.273L163.972,31.273z M164.567,33.885h0.995l1.249-3.691
		c0.17-0.568,0.397-1.135,0.086-1.619c-0.257-0.369-0.881-0.512-1.393-0.512c-0.625,0-1.136,0.086-1.533,0.229
		c-0.824,0.313-1.165,0.854-1.222,1.334l0.966,0.057c0.057-0.197,0.142-0.34,0.256-0.455c0.283-0.311,0.681-0.396,1.222-0.396
		c0.226,0,0.511,0.029,0.652,0.229c0.142,0.197,0.086,0.482,0,0.738l-0.257,0.736h-0.823c-0.283,0-0.538,0-0.794,0.029
		c-1.106,0.141-2.046,0.596-2.442,1.762c-0.313,0.879,0,1.646,1.25,1.646c0.368,0,0.766-0.027,1.192-0.227
		c0.397-0.197,0.71-0.482,0.794-0.568h0.058L164.567,33.885L164.567,33.885z"/>
	<polygon fill-rule="evenodd" clip-rule="evenodd" fill="#00529C" points="161.529,28.205 160.421,28.205 156.133,32.381 
		157.554,28.205 156.446,28.205 154.514,33.885 155.622,33.885 159.91,29.682 158.49,33.885 159.598,33.885 161.529,28.205 	"/>
	<path fill-rule="evenodd" clip-rule="evenodd" fill="#00529C" d="M152.015,31.359c0.198,0,0.369,0.084,0.482,0.17
		c0.143,0.17,0.143,0.455,0.029,0.711c-0.114,0.311-0.313,0.537-0.482,0.652c0,0-0.029,0-0.029,0.029
		c-0.227,0.141-0.54,0.195-0.852,0.195h-1.335l0.598-1.787h1.39C151.901,31.33,151.959,31.33,152.015,31.359L152.015,31.359z
		 M152.015,28.945h0.568c0.199,0,0.454,0,0.625,0.17c0.17,0.199,0.142,0.396,0.086,0.625c-0.086,0.227-0.199,0.453-0.456,0.623
		c-0.282,0.199-0.539,0.199-0.823,0.199h-1.335l0.567-1.617H152.015L152.015,28.945z M152.015,33.803
		c0.369-0.115,0.71-0.314,0.966-0.484c0.313-0.256,0.625-0.627,0.795-1.078c0.114-0.344,0.143-0.656-0.029-0.938
		c-0.112-0.201-0.34-0.369-0.651-0.428l0.028-0.027c0.369-0.086,0.682-0.285,0.88-0.484c0.198-0.197,0.369-0.51,0.482-0.795
		c0.171-0.51,0.085-0.795-0.113-1.023c-0.283-0.311-0.738-0.34-1.107-0.34h-1.25h-1.618l-1.959,5.68h2.81
		C151.504,33.885,151.761,33.857,152.015,33.803L152.015,33.803z"/>
	<path fill-rule="evenodd" clip-rule="evenodd" fill="#00529C" d="M133.13,28.916c0.17-0.057,0.34-0.086,0.481-0.086
		c1.107,0,0.853,0.938,0.654,1.449l-0.085,0.254h-1.051h-1.279l0.086-0.254C132.22,29.426,132.703,29.059,133.13,28.916
		L133.13,28.916z M133.13,31.273h1.902c0.851-2.047,0.738-3.211-1.164-3.211c-0.228,0-0.484,0.029-0.738,0.086
		c-1.108,0.256-2.103,1.166-2.699,2.982c-0.822,2.416,0.142,2.84,1.449,2.84c0.481,0,0.908-0.057,1.25-0.168
		c0.908-0.314,1.419-0.939,1.504-1.563l-0.937-0.145c-0.057,0.17-0.198,0.541-0.567,0.797c-0.228,0.17-0.541,0.311-0.995,0.311
		c-0.341,0-1.192-0.086-0.71-1.389l0.171-0.541H133.13L133.13,31.273z"/>
	<polygon fill-rule="evenodd" clip-rule="evenodd" fill="#00529C" points="130.005,28.205 128.926,28.205 124.609,32.381 
		126.028,28.205 124.95,28.205 123.019,33.885 124.126,33.885 128.414,29.682 126.994,33.885 128.102,33.885 130.005,28.205 	"/>
	<path fill-rule="evenodd" clip-rule="evenodd" fill="#00529C" d="M118.93,28.205l-1.932,5.68h1.107l0.88-2.555h1.052
		c0.198,0,0.453,0,0.567,0.199c0.057,0.084,0.112,0.256,0.028,0.539l-0.143,0.768c-0.084,0.367-0.142,0.766,0.313,0.992
		c0.228,0.086,0.568,0.143,0.768,0.143l0.455-0.824c-0.086,0-0.171,0-0.257-0.029c-0.228-0.084-0.198-0.311-0.17-0.48l0.057-0.396
		c0.028-0.256,0.143-0.627,0.028-0.91c-0.057-0.199-0.284-0.342-0.512-0.396v-0.029c0.285-0.057,0.483-0.201,0.653-0.371
		c0.2-0.225,0.284-0.367,0.398-0.596l0.199-0.396c0.084-0.199,0.226-0.512,0.511-0.625c0.056-0.029,0.143-0.057,0.397-0.086
		l0.113-0.738c-0.426,0.057-0.852,0.057-1.249,0.342c-0.341,0.256-0.483,0.596-0.625,0.881l-0.171,0.311
		c-0.142,0.287-0.228,0.512-0.511,0.684c-0.198,0.17-0.426,0.17-0.624,0.17h-0.995l0.768-2.273H118.93L118.93,28.205z"/>
	<path fill-rule="evenodd" clip-rule="evenodd" fill="#00529C" d="M115.606,32.75c-0.198,0.113-0.455,0.197-0.711,0.283
		c-0.313,0.084-0.539,0.113-0.823,0.113c-0.369,0-0.767-0.029-1.022-0.369c-0.313-0.396-0.114-1.021,0.143-1.732
		c0.198-0.682,0.426-1.305,0.824-1.703c0.226-0.227,0.566-0.512,1.164-0.512c0.397,0,0.624,0.115,0.738,0.314
		c0.141,0.227,0.057,0.48-0.114,0.852l1.051-0.084c0.396-0.627,0.341-1.252-0.114-1.563c-0.284-0.201-0.709-0.287-1.163-0.287
		c-0.568,0-1.251,0.143-1.818,0.482c-1.051,0.625-1.563,1.764-1.79,2.473c-0.198,0.596-0.481,1.703,0.086,2.387
		c0.369,0.48,0.966,0.566,1.619,0.566c0.426,0,0.795-0.027,1.278-0.168c0.255-0.115,0.538-0.23,0.824-0.371L115.606,32.75
		L115.606,32.75z"/>
	<path fill-rule="evenodd" clip-rule="evenodd" fill="#00529C" d="M110.664,25.734c-0.057,0.143-0.142,0.285-0.283,0.398
		c-0.198,0.17-0.512,0.258-0.71,0.258c-0.2,0-0.483-0.088-0.54-0.258c-0.086-0.113-0.058-0.256,0-0.398h-0.795
		c-0.2,0.426-0.171,0.852,0.084,1.082c0.256,0.254,0.711,0.281,0.995,0.281c0.342,0,0.768-0.027,1.221-0.281
		c0.426-0.23,0.711-0.656,0.823-1.082H110.664L110.664,25.734z"/>
	<polygon fill-rule="evenodd" clip-rule="evenodd" fill="#00529C" points="111.518,28.205 110.437,28.205 106.121,32.381 
		107.54,28.205 106.461,28.205 104.53,33.885 105.637,33.885 109.926,29.682 108.507,33.885 109.614,33.885 111.518,28.205 	"/>
	<polygon fill-rule="evenodd" clip-rule="evenodd" fill="#00529C" points="104.813,28.205 103.734,28.205 99.418,32.381 
		100.839,28.205 99.758,28.205 97.827,33.885 98.907,33.885 103.196,29.682 101.775,33.885 102.883,33.885 104.813,28.205 	"/>
	<path fill-rule="evenodd" clip-rule="evenodd" fill="#00529C" d="M96.635,32.75c-0.255,0.113-0.455,0.197-0.738,0.283
		c-0.313,0.084-0.54,0.113-0.853,0.113c-0.34,0-0.766-0.029-0.994-0.369c-0.283-0.396-0.113-1.021,0.143-1.732
		c0.227-0.682,0.455-1.305,0.852-1.703c0.199-0.227,0.568-0.512,1.136-0.512c0.397,0,0.625,0.115,0.767,0.314
		c0.113,0.227,0.029,0.48-0.113,0.852l1.022-0.084c0.397-0.627,0.369-1.252-0.085-1.563c-0.284-0.201-0.738-0.287-1.193-0.287
		c-0.568,0-1.25,0.143-1.817,0.482c-1.051,0.625-1.534,1.764-1.79,2.473c-0.199,0.596-0.483,1.703,0.085,2.387
		c0.37,0.48,0.994,0.566,1.619,0.566c0.426,0,0.824-0.027,1.278-0.168c0.227-0.115,0.54-0.23,0.795-0.371L96.635,32.75L96.635,32.75
		z"/>
	<path fill-rule="evenodd" clip-rule="evenodd" fill="#00529C" d="M91.04,32.75c-0.255,0.113-0.482,0.197-0.738,0.283
		c-0.313,0.084-0.54,0.113-0.852,0.113c-0.341,0-0.767-0.029-0.994-0.369c-0.313-0.396-0.114-1.021,0.142-1.732
		c0.198-0.682,0.426-1.305,0.852-1.703c0.199-0.227,0.54-0.512,1.136-0.512c0.369,0,0.624,0.115,0.738,0.314
		c0.114,0.227,0.057,0.48-0.114,0.852l1.052-0.084c0.397-0.627,0.34-1.252-0.085-1.563c-0.285-0.201-0.739-0.287-1.193-0.287
		c-0.568,0-1.25,0.143-1.818,0.482c-1.051,0.625-1.534,1.764-1.79,2.473c-0.198,0.596-0.482,1.703,0.086,2.387
		c0.369,0.48,0.994,0.566,1.619,0.566c0.426,0,0.823-0.027,1.278-0.168c0.228-0.115,0.54-0.23,0.795-0.371L91.04,32.75L91.04,32.75z
		"/>
	<path fill-rule="evenodd" clip-rule="evenodd" fill="#00529C" d="M83.685,29c0.198-0.084,0.454-0.17,0.767-0.17
		c0.454,0,0.681,0.199,0.767,0.369c0.227,0.426,0.028,1.053-0.057,1.334l-0.369,0.996c-0.085,0.285-0.313,0.908-0.795,1.307
		c-0.085,0.086-0.17,0.141-0.312,0.227c-0.199,0.084-0.427,0.17-0.738,0.17c-0.484,0-0.71-0.199-0.795-0.396
		c-0.199-0.398,0-1.021,0.085-1.307l0.34-0.996c0.114-0.281,0.341-0.908,0.824-1.334C83.485,29.145,83.571,29.059,83.685,29
		L83.685,29z M84.707,28.063c-0.369,0-0.71,0.057-1.022,0.143c-0.398,0.145-0.738,0.34-1.051,0.598
		c-0.795,0.623-1.192,1.506-1.42,2.242c-0.256,0.684-0.483,1.563-0.113,2.217c0.255,0.426,0.738,0.709,1.59,0.709
		c0.369,0,0.71-0.027,0.994-0.143c0.426-0.113,0.767-0.311,1.079-0.566c0.795-0.654,1.193-1.533,1.448-2.217
		c0.228-0.736,0.426-1.619,0.057-2.242C86.042,28.375,85.559,28.063,84.707,28.063L84.707,28.063z"/>
	<path fill-rule="evenodd" clip-rule="evenodd" fill="#00529C" d="M79.14,26.615h0.71c0.37,0,0.795,0.115,0.965,0.342
		c0.114,0.113,0.313,0.396,0.114,0.965c-0.199,0.598-0.568,0.938-0.738,1.051c-0.369,0.283-0.739,0.398-1.051,0.398
		C79.056,29.4,78.97,29.4,78.885,29.4h-1.619l0.937-2.785H79.14L79.14,26.615z M79.14,30.309c0.511-0.029,1.278-0.201,1.96-0.74
		c0.539-0.369,0.994-0.994,1.221-1.646c0.141-0.455,0.255-1.191-0.255-1.705c-0.511-0.482-1.25-0.539-1.932-0.539H79.14h-1.818
		l-2.783,8.207h1.222l1.192-3.549h1.761C78.828,30.336,78.97,30.336,79.14,30.309L79.14,30.309z"/>
	<polygon fill-rule="evenodd" clip-rule="evenodd" fill="#00529C" points="199.5,28.205 198.393,28.205 194.104,32.381 
		195.524,28.205 194.416,28.205 192.485,33.885 193.593,33.885 197.881,29.682 196.462,33.885 197.569,33.885 199.5,28.205 	"/>
	<path fill-rule="evenodd" clip-rule="evenodd" fill="#00529C" d="M11.377,36.639L9.02,35.617l9.77-1.191
		c0.17,0.283,0.341,0.539,0.54,0.795L11.377,36.639L11.377,36.639z M37.59,36.639l2.357-1.078l-9.713-1.164
		c-0.085,0.313-0.341,0.568-0.511,0.824L37.59,36.639L37.59,36.639z M36.171,36.811l-2.954,0.994l-4.203-1.277l-0.37-0.113
		c0.142-0.115,0.256-0.229,0.37-0.369c0.17-0.143,0.312-0.342,0.483-0.484L36.171,36.811L36.171,36.811z M43.981,34.057l-2.698,1.25
		l-10.792-1.25c0.085-0.254,0.171-0.51,0.256-0.768L43.981,34.057L43.981,34.057z M44.946,33.688l3.521-2.244H29.383
		c0,0.797-0.114,1.479-0.369,2.074c-0.739,1.902-2.584,2.811-4.431,2.781c-1.817-0.057-3.663-0.992-4.487-2.727
		c-0.284-0.625-0.454-1.307-0.454-2.129H0.5l3.494,2.244l14.626-0.766c0.283,1.049,0.794,1.959,1.476,2.639
		c1.165,1.223,2.84,1.904,4.487,1.904c1.619,0.029,3.267-0.566,4.431-1.875c0.625-0.682,1.107-1.563,1.391-2.613L44.946,33.688
		L44.946,33.688z M29.014,39.479l0.369,0.684l-0.369,0.172l-0.994,0.453l-1.136-2.244c-0.709,0.256-1.505,0.398-2.301,0.426
		c-0.852,0.029-1.732-0.086-2.499-0.342l-0.966,2.16c-0.313,0.027-0.739,0-1.022-0.197c-0.142-0.086-0.284-0.229-0.34-0.428
		l0.34-0.568l0.824-1.479c-0.256-0.168-0.483-0.281-0.71-0.51l0.682-0.822c1.164,0.711,2.442,1.107,3.691,1.107
		c1.25,0.029,2.499-0.371,3.664-1.193l0.768,0.227l0.312,0.115c-0.113,0.084-0.199,0.17-0.312,0.256
		c-0.228,0.225-0.426,0.453-0.795,0.652L29.014,39.479L29.014,39.479z M29.014,27.865c0.738,0.881,1.277,1.961,1.562,3.209h-1.221
		c-0.085-0.371-0.198-0.738-0.34-1.078c-0.824-2.158-2.5-3.693-4.431-4.973c-0.255-0.141-0.482-0.311-0.738-0.453
		c0.256,0.086,0.483,0.172,0.738,0.258C26.344,25.535,27.906,26.502,29.014,27.865L29.014,27.865z M25.719,35.873
		c0.313-0.057,0.795-0.227,1.165-0.51l-1.932-3.834l2.017-0.967l-1.704-1.477L24.583,29.4l-2.925,1.332l0.852,1.932l1.392-0.623
		L25.719,35.873L25.719,35.873z M20.437,36.414c-0.114-0.086-0.228-0.199-0.341-0.285c-0.227-0.197-0.426-0.396-0.568-0.596
		l-6.669,1.26l2.839,0.953L20.437,36.414L20.437,36.414z M18.62,34.057c-0.114-0.254-0.199-0.51-0.285-0.768L4.987,34.057
		l2.698,1.307L18.62,34.057L18.62,34.057z"/>
</g>
</svg>
