<?xml version="1.0" encoding="utf-8"?>
<!-- Generator: Adobe Illustrator 16.0.0, SVG Export Plug-In . SVG Version: 6.00 Build 0)  -->
<!DOCTYPE svg PUBLIC "-//W3C//DTD SVG 1.1//EN" "http://www.w3.org/Graphics/SVG/1.1/DTD/svg11.dtd">
<svg version="1.1" id="Layer_1" xmlns="http://www.w3.org/2000/svg" xmlns:xlink="http://www.w3.org/1999/xlink" x="0px" y="0px"
	 width="300px" height="300px" viewBox="0 0 300 300" enable-background="new 0 0 300 300" xml:space="preserve">
<g id="AA">
	<defs>
		<path id="SVGID_1_" d="M5.312,150.305c0,80.078,64.922,145.001,144.994,145.001c80.093,0,145.006-64.924,145.006-145.001
			c0-80.077-64.913-144.999-145.006-144.999C70.233,5.307,5.312,70.228,5.312,150.305"/>
	</defs>
	<clipPath id="SVGID_2_">
		<use xlink:href="#SVGID_1_"  overflow="visible"/>
	</clipPath>
	<path clip-path="url(#SVGID_2_)" fill="#E32526" d="M295.312,150.305c0,80.078-64.913,145.001-145.006,145.001
		c-80.072,0-144.994-64.924-144.994-145.001c0-80.077,64.922-144.999,144.994-144.999C230.398,5.307,295.312,70.228,295.312,150.305
		"/>
	<path clip-path="url(#SVGID_2_)" fill="#FFFFFF" d="M109.494,121.304c3.279-0.593,5.716,1.4,5.471,4.431
		c-0.245,3.027-3.111,5.985-6.384,6.57c-3.258,0.581-5.716-1.412-5.456-4.445C103.374,124.828,106.221,121.904,109.494,121.304
		 M74.235,143.04c2.838-10.566,6.273-21.355,9.672-29.411c-6.849,8.978-14.188,20.401-20.801,31.806
		C66.955,144.534,70.699,143.735,74.235,143.04 M132.566,134.806c2.556-0.465,8.297,3.01,5.551,6.23
		c-2.854,3.313-6.074,2.652-11.129,4.762c-2.865,1.188-5.063,3.753-8.201,8.268c-3.99,5.854-5.818,11.588-6.146,15.897
		c-0.027,1.279-0.129,1.918-0.805,2.359c-6.68,4.363-8.735,1.084-8.566-2.924c0.043-0.946,0.374-2.442,0.964-4.284
		c-5.14,7.707-9.69,11.605-12.666,12.14c-3.989,0.721-6.24-2.048-5.811-7.171c0.196-2.33,0.897-5.069,2.202-8.521
		c1.368-3.505,3.524-8.297,5.52-12.223c0.509-1.023,1.001-2.005,1.415-2.884c-3.028,0.585-7.324,1.473-12.381,2.626
		c-0.068,0.166-0.125,0.257-0.187,0.267c-2.149,10.038-2.318,13.822-3.476,22.574c-0.49,3.828,0.248,7.946-4.311,8.575
		c-4.558,0.661-6.071-4.033-6.098-8.041c-0.059-4.081,0.695-8.985,3.579-20.856c-4.736,1.206-9.742,2.593-14.696,4.114
		c-0.07,0.111-0.119,0.169-0.119,0.169c-8.227,15.06-16.347,33.694-17.69,39.72c-1.071,4.831-3.254,6.311-6.466,4.911
		c-3.206-1.405-5.073-4.635-3.907-8.236c2.113-6.464,8.548-20.973,14.28-31.386c-0.043,0.019,0-0.125,0.135-0.389
		c-4.201,1.632-8.107,3.382-11.521,5.264c-2.251,1.212-5.077,0.092-5.619-2.422c-0.388-1.783-1.24-5.304,3.121-7.218
		c6.588-2.88,13.715-5.319,20.834-7.379c15.119-25.437,33.911-51.608,39.315-51.13c2.339,0.202,1.969,2.73,4.032,5.021
		c2.036,2.281,2.333,3.678-0.104,9.725c-4.997,12.412-4.599,9.521-9.394,28.884c8.793-1.458,16.447-2.299,17.164-2.41
		c2.427-0.345,6.604,1.308,4.396,6.048c0,0-2.314,4.075-3.227,5.82c-1.65,2.887-3.791,7.226-5.083,10.158
		c-0.821,1.729-1.194,3.051-1.261,4.019c-0.067,0.629,0.169,0.985,0.677,0.894c0.673-0.122,1.66-0.849,2.85-2.081
		c1.157-1.353,5.064-4.558,12.047-16.323l1.843-3.812c0.594-1.136,1.445-3.138,1.607-4.057c0.193-1.366,0.245-1.721,1.387-2.44
		c1.843-1.176,5.174-2.149,7.097-0.894c1.81,1.197,1.341,3.365-0.162,5.995C129.642,135.312,131.207,135.03,132.566,134.806
		 M251.649,154.617c3.422-4.208,8.716-13.862,9.047-16.498c0.152-1.21-0.196-1.688-1.147-1.565
		c-1.176,0.156-3.815,2.312-6.327,5.387c-3.679,4.415-8.633,13.32-9.021,16.254c-0.163,1.2,0.327,1.988,1.173,1.887
		C246.735,159.895,249.087,157.853,251.649,154.617 M272.153,147.651c1.487-2.361,4.635-1.589,3.793,0.582
		c-0.727,1.879-2.101,4.929-5.604,9.067c-4.305,5.293-8.27,7.861-11.854,8.337c-2.89,0.407-4.938-0.831-5.438-3.42l-0.168-0.527
		c-0.009-0.456-0.238-0.683-0.489-0.641c-0.264,0.028-0.457,0.225-0.94,0.681c-3.635,3.852-6.415,6.221-9.775,6.681
		c-5.019,0.656-7.94-3.262-7.229-8.947c-1.343,1.988-2.73,3.898-4.007,5.307c-3.922,4.357-7.137,7.125-10.12,7.515
		c-4.025,0.538-6.132-2.331-5.454-7.414c0.303-2.316,1.166-5.013,2.639-8.435c1.53-3.413,3.903-8.105,6.096-11.932
		c1.751-3.136,3.441-6.682,3.704-7.891c0.202-0.952,0.306-1.136,1.05-1.62c0.935-0.664,2.78-1.451,3.905-1.54
		c2.841-0.214,6.611,1.84,4.117,6.099l-0.94,1.62c-0.135,0.333-1.841,3.416-2.822,5.098c-1.81,2.834-4.127,7.058-5.582,9.917
		c-0.903,1.702-1.341,3.004-1.46,3.952c-0.099,0.634,0.119,1.012,0.615,0.938c0.695-0.086,1.718-0.769,2.961-1.969
		c1.275-1.334,2.054-2.219,4.896-5.979l1.031-1.301c0.82-1.07,7.296-9.539,9.243-11.636c5.224-6.233,11.124-10.651,14.913-11.141
		c2.489-0.343,4.497,0.793,5.465,3.092c0.683,1.877,0.818,2.006,2.483,2.725c2.663,1.056,3.536,1.95,3.331,3.307
		c-0.099,0.968-0.462,1.718-2.155,4.379c-1.19,2.035-2.501,4.411-3.441,6.242c-1.979,3.917-3.062,6.583-1.143,7.263
		c0.727,0.251,2.071-0.44,3.749-2.217C269.379,151.876,270.693,149.928,272.153,147.651 M237.838,127.997
		c3.268-0.582,6.123-3.527,6.381-6.567c0.235-3.034-2.211-5.009-5.463-4.424c-3.275,0.588-6.141,3.53-6.38,6.574
		C232.115,126.607,234.577,128.585,237.838,127.997 M188.147,113.623c-6.8,8.931-14.105,20.305-20.725,31.664
		c3.871-0.885,7.591-1.65,11.068-2.308C181.348,132.449,184.755,121.668,188.147,113.623 M189.855,141.074
		c1.953-0.288,8.304-1.041,8.06,1.623c-0.374,4.293-1.991,4.229-7.671,5.447c-1.074,0.242-2.217,0.487-3.416,0.741
		c-0.087,0.288-0.179,0.456-0.245,0.466c-2.14,10.038-2.309,13.834-3.484,22.574c-0.505,3.828,0.244,7.946-4.313,8.575
		c-4.556,0.661-6.13-4.036-6.103-8.041c0.016-7.088,3.592-20.985,3.61-21.067c-4.636,1.181-9.607,2.525-14.553,4.068
		c-5.893,10.008-16.633,34.12-17.962,40.146c-1.081,4.831-3.261,6.311-6.482,4.896c-3.205-1.39-4.996-4.592-3.897-8.221
		c2.991-9.976,14.298-31.581,14.476-31.971c-4.194,1.685-8.104,3.493-11.475,5.416c-2.088,1.188-4.752,0.055-5.318-2.449
		c-0.374-1.801-1.204-5.309,2.875-7.173c6.542-2.982,13.655-5.476,20.758-7.524c15.095-25.389,33.815-51.438,39.209-50.957
		c2.351,0.199,1.985,2.728,4.04,5.018c2.045,2.275,2.333,3.678-0.118,9.725c-4.974,12.421-4.565,9.521-9.377,28.918
		C188.943,141.218,189.392,141.142,189.855,141.074 M197.066,176.26c3.729-0.382,14.629-2.771,14.738-14.738
		c0.025-4.632-4.402-7.074-5.478-10.303c-0.694-1.995-0.527-6.112,2.621-7.349c3.889-1.531,4.694,1.025,6.037,2.936
		c0.558,0.784,2.339,0.597,2.948-0.04c0.849-0.882,2.089-2.202,2.624-4.443c0.472-2.054-1.708-5.505-8.042-5.291
		c-2.214,0.049-5.346,0.426-9.782,4.657c-2.046,1.947-8.559,10.854-3.738,18.502c1.301,2.076,4.43,4.614,2.418,6.564
		c-3.139,3.025-8.531-1.661-9.556-3.076c-0.462-0.651-1.8-1.412-2.679-0.122c-0.508,0.74-2.927,5.052-2.553,6.646
		C187.713,175.178,194.133,176.554,197.066,176.26"/>
</g>
</svg>
