<?xml version="1.0" encoding="UTF-8" standalone="no"?>
<!-- Created with Inkscape (http://www.inkscape.org/) -->

<svg
   xmlns:dc="http://purl.org/dc/elements/1.1/"
   xmlns:cc="http://creativecommons.org/ns#"
   xmlns:rdf="http://www.w3.org/1999/02/22-rdf-syntax-ns#"
   xmlns:svg="http://www.w3.org/2000/svg"
   xmlns="http://www.w3.org/2000/svg"
   xmlns:sodipodi="http://sodipodi.sourceforge.net/DTD/sodipodi-0.dtd"
   xmlns:inkscape="http://www.inkscape.org/namespaces/inkscape"
   width="171.99998"
   height="43.998081"
   viewBox="0 0 45.508331 11.641158"
   version="1.1"
   id="svg445"
   inkscape:version="0.92.0 r15299"
   sodipodi:docname="belavia.svg">
  <defs
     id="defs439" />
  <sodipodi:namedview
     id="base"
     pagecolor="#ffffff"
     bordercolor="#666666"
     borderopacity="1.0"
     inkscape:pageopacity="0.0"
     inkscape:pageshadow="2"
     inkscape:zoom="4.6900585"
     inkscape:cx="85.499999"
     inkscape:cy="21.499042"
     inkscape:document-units="mm"
     inkscape:current-layer="layer1"
     showgrid="false"
     fit-margin-top="0"
     fit-margin-left="0"
     fit-margin-right="0"
     fit-margin-bottom="0"
     units="px"
     inkscape:window-width="1280"
     inkscape:window-height="744"
     inkscape:window-x="-4"
     inkscape:window-y="-4"
     inkscape:window-maximized="1" />
  <metadata
     id="metadata442">
    <rdf:RDF>
      <cc:Work
         rdf:about="">
        <dc:format>image/svg+xml</dc:format>
        <dc:type
           rdf:resource="http://purl.org/dc/dcmitype/StillImage" />
        <dc:title></dc:title>
      </cc:Work>
    </rdf:RDF>
  </metadata>
  <g
     inkscape:label="Layer 1"
     inkscape:groupmode="layer"
     id="layer1"
     transform="translate(71.758779,-205.62451)">
    <g
       id="XMLID_102_"
       transform="matrix(0.26458333,0,0,0.26458333,-71.626489,205.7568)">
	<g
   id="XMLID_153_">
		<g
   id="XMLID_225_">
			<g
   id="XMLID_226_">
				<path
   d="m 136.5816,1.00848 c -0.003,-0.01058 -0.006,-0.02081 -0.008,-0.03139 l -0.47583,-0.91798 c -0.0332,-0.06409 -0.12865,-0.05098 -0.1433,0.01969 l -0.17746,0.85582 c -0.0134,0.0646 -0.0968,0.08324 -0.13651,0.03049 L 135.10812,0.2579 c -0.0438,-0.0583 -0.13675,-0.02828 -0.13808,0.04462 l -0.0162,0.88553 c -0.001,0.06535 -0.0785,0.09931 -0.12753,0.05603 l -0.68506,-0.60447 c -0.054,-0.04763 -0.13799,-0.00146 -0.12659,0.06956 l 0.14189,0.88363 c 0.0105,0.06524 -0.0611,0.11226 -0.11694,0.07681 L 133.2801,1.18752 c -0.061,-0.03875 -0.13696,0.02066 -0.11389,0.08912 l 0.32933,0.97723 c 0.006,0.00942 0.0111,0.01851 0.0167,0.02793 l 2.21225,2.36002 c 0.0202,0.02155 0.0536,0.0228 0.0761,0.00368 0.24428,-0.20743 0.55261,-0.34067 0.89119,-0.36594 0.03,-0.00224 0.053,-0.02728 0.0515,-0.05725 z"
   id="XMLID_227_"
   inkscape:connector-curvature="0"
   style="fill:#49559f" />

			</g>

		</g>

		<g
   id="XMLID_222_">
			<g
   id="XMLID_223_">
				<path
   d="m 133.23723,2.57174 c -0.01,-0.00546 -0.0187,-0.01074 -0.0282,-0.0162 l -0.98645,-0.3131 c -0.0689,-0.02186 -0.12704,0.05479 -0.0874,0.11511 l 0.48048,0.73048 c 0.0363,0.05514 -0.01,0.12724 -0.0749,0.11795 L 131.66389,3.0815 c -0.0723,-0.01026 -0.11671,0.07657 -0.066,0.12906 l 0.61555,0.63759 c 0.0454,0.04705 0.0148,0.12565 -0.0505,0.12968 l -0.9124,0.05634 c -0.0719,0.00444 -0.0986,0.09641 -0.0403,0.13857 l 0.72598,0.52463 c 0.0536,0.03873 0.0363,0.12252 -0.0283,0.13689 l -0.87842,0.19546 c -0.0706,0.01571 -0.0822,0.11133 -0.0174,0.14345 l 0.9248,0.45844 c 0.0106,0.00268 0.0209,0.00527 0.0316,0.00795 l 3.23541,0.10658 c 0.0295,9.7e-4 0.0539,-0.02164 0.0563,-0.05102 0.0258,-0.31921 0.14954,-0.6312 0.37106,-0.88818 0.0196,-0.02274 0.0182,-0.0567 -0.004,-0.07683 z"
   id="XMLID_224_"
   inkscape:connector-curvature="0"
   style="fill:#49559f" />

			</g>

		</g>

		<g
   id="XMLID_219_">
			<g
   id="XMLID_220_">
				<path
   d="m 131.97926,6.03879 c -0.0106,0.00286 -0.0208,0.00562 -0.0314,0.00848 l -0.9192,0.4752 c -0.0642,0.03318 -0.051,0.12847 0.0197,0.1431 l 0.85698,0.17722 c 0.0647,0.01338 0.0833,0.0967 0.0305,0.13633 l -0.70815,0.53116 c -0.0584,0.04379 -0.0283,0.13657 0.0447,0.1379 l 0.8867,0.01617 c 0.0654,0.00119 0.0994,0.07839 0.0561,0.12737 l -0.60529,0.68415 c -0.0477,0.0539 -0.001,0.1378 0.0697,0.12641 l 0.88481,-0.14169 c 0.0653,-0.01046 0.11241,0.06102 0.0769,0.11678 l -0.48274,0.75851 c -0.0388,0.06097 0.0207,0.13679 0.0893,0.11374 l 0.97855,-0.3289 c 0.009,-0.00563 0.0185,-0.01106 0.028,-0.01669 l 2.36317,-2.2093 c 0.0216,-0.02017 0.0228,-0.05348 0.004,-0.07597 -0.2077,-0.24396 -0.34113,-0.55188 -0.36644,-0.89 -0.002,-0.02992 -0.0273,-0.05291 -0.0573,-0.05141 z"
   id="XMLID_221_"
   inkscape:connector-curvature="0"
   style="fill:#49559f" />

			</g>

		</g>

		<g
   id="XMLID_216_">
			<g
   id="XMLID_217_">
				<path
   d="m 133.5446,9.37871 c -0.005,0.00951 -0.0107,0.01869 -0.0162,0.02819 l -0.31352,0.98513 c -0.0219,0.06878 0.0549,0.12689 0.11526,0.08727 l 0.73145,-0.47985 c 0.0552,-0.03622 0.12741,0.00952 0.11812,0.07484 l -0.12465,0.87566 c -0.0103,0.07219 0.0767,0.11656 0.12924,0.06596 l 0.63844,-0.61473 c 0.0471,-0.04536 0.12581,-0.01479 0.12985,0.05044 l 0.0564,0.91119 c 0.004,0.07179 0.0965,0.09847 0.13876,0.0402 l 0.52533,-0.72501 c 0.0388,-0.05353 0.12268,-0.03623 0.13707,0.02826 l 0.19572,0.87724 c 0.0157,0.07051 0.11147,0.08212 0.14363,0.01741 l 0.45906,-0.92357 c 0.003,-0.01064 0.005,-0.02091 0.008,-0.03155 l 0.10672,-3.23109 c 9.6e-4,-0.02946 -0.0217,-0.05384 -0.0511,-0.05621 -0.31964,-0.02581 -0.63205,-0.14933 -0.88937,-0.37057 -0.0228,-0.01958 -0.0568,-0.01813 -0.0769,0.00413 z"
   id="XMLID_218_"
   inkscape:connector-curvature="0"
   style="fill:#49559f" />

			</g>

		</g>

		<g
   id="XMLID_213_">
			<g
   id="XMLID_214_">
				<path
   d="m 137.0163,10.63499 c 0.003,0.01058 0.006,0.0208 0.008,0.03139 l 0.47583,0.91799 c 0.0332,0.06409 0.12863,0.05098 0.1433,-0.01969 l 0.17744,-0.85583 c 0.0134,-0.0646 0.0968,-0.08324 0.13652,-0.03049 l 0.53188,0.7072 c 0.0438,0.0583 0.13673,0.02828 0.13808,-0.04462 l 0.0162,-0.88553 c 0.001,-0.06535 0.0785,-0.09931 0.12753,-0.05603 l 0.68506,0.60447 c 0.054,0.04763 0.13799,0.0015 0.12659,-0.06956 l -0.14189,-0.88363 c -0.0105,-0.06524 0.0611,-0.11226 0.11694,-0.07681 l 0.75952,0.48209 c 0.061,0.03875 0.13696,-0.02066 0.11389,-0.08912 l -0.32933,-0.97723 c -0.006,-0.00942 -0.0111,-0.01851 -0.0167,-0.02793 l -2.21225,-2.36002 c -0.0202,-0.02155 -0.0535,-0.0228 -0.0761,-0.00368 -0.24428,0.20743 -0.55261,0.34067 -0.89119,0.36594 -0.0299,0.00224 -0.053,0.02728 -0.0515,0.05725 z"
   id="XMLID_215_"
   inkscape:connector-curvature="0"
   style="fill:#49559f" />

			</g>

		</g>

		<g
   id="XMLID_161_">
			<g
   id="XMLID_211_">
				<path
   d="m 140.36067,9.07174 c 0.01,0.00546 0.0187,0.01074 0.0282,0.0162 l 0.98643,0.3131 c 0.0689,0.02186 0.12706,-0.05479 0.0874,-0.11512 l -0.48048,-0.73047 c -0.0363,-0.05514 0.01,-0.12724 0.0749,-0.11795 l 0.87683,0.12448 c 0.0723,0.01026 0.11671,-0.07657 0.066,-0.12906 L 141.3845,7.79533 c -0.0454,-0.04705 -0.0148,-0.12565 0.0505,-0.12968 l 0.91241,-0.05634 c 0.0719,-0.00444 0.0986,-0.09641 0.0403,-0.13857 l -0.726,-0.52463 c -0.0536,-0.03873 -0.0363,-0.12252 0.0283,-0.13689 l 0.87842,-0.19546 c 0.0706,-0.01571 0.0822,-0.11133 0.0174,-0.14345 l -0.9248,-0.45844 c -0.0106,-0.00268 -0.0209,-0.00527 -0.0316,-0.00795 l -3.2354,-0.10658 c -0.0295,-9.7e-4 -0.0539,0.02164 -0.0563,0.05102 -0.0258,0.31921 -0.14954,0.6312 -0.37108,0.88818 -0.0196,0.02274 -0.0181,0.0567 0.004,0.07683 z"
   id="XMLID_212_"
   inkscape:connector-curvature="0"
   style="fill:#49559f" />

			</g>

		</g>

		<g
   id="XMLID_158_">
			<g
   id="XMLID_159_">
				<path
   d="m 141.61862,5.60468 c 0.0106,-0.00286 0.0208,-0.00562 0.0314,-0.00848 l 0.9192,-0.4752 c 0.0642,-0.03318 0.0511,-0.12847 -0.0197,-0.14311 l -0.85696,-0.17722 c -0.0647,-0.01338 -0.0833,-0.0967 -0.0305,-0.13633 l 0.70816,-0.53116 c 0.0584,-0.04379 0.0283,-0.13657 -0.0447,-0.1379 l -0.8867,-0.01617 c -0.0654,-0.00119 -0.0994,-0.07839 -0.0561,-0.12737 L 141.988,3.16759 c 0.0477,-0.0539 0.001,-0.1378 -0.0697,-0.12641 l -0.88483,0.14169 c -0.0653,0.01046 -0.1124,-0.06102 -0.0769,-0.11678 l 0.48273,-0.75851 c 0.0388,-0.06097 -0.0207,-0.13679 -0.0892,-0.11374 l -0.97855,0.3289 c -0.009,0.00563 -0.0185,0.01106 -0.028,0.01669 l -2.36316,2.2093 c -0.0216,0.02017 -0.0228,0.05348 -0.004,0.07597 0.2077,0.24396 0.34113,0.55188 0.36642,0.89 0.002,0.02992 0.0273,0.05291 0.0573,0.05141 z"
   id="XMLID_160_"
   inkscape:connector-curvature="0"
   style="fill:#49559f" />

			</g>

		</g>

		<g
   id="XMLID_155_">
			<g
   id="XMLID_156_">
				<path
   d="m 140.05328,2.26477 c 0.005,-0.00951 0.0108,-0.01869 0.0162,-0.02819 L 140.383,1.25145 c 0.0219,-0.06878 -0.0549,-0.12689 -0.11526,-0.08727 l -0.73146,0.47985 c -0.0552,0.03622 -0.1274,-0.00952 -0.1181,-0.07484 l 0.12465,-0.87566 c 0.0103,-0.07219 -0.0767,-0.11656 -0.12924,-0.06596 l -0.63844,0.61473 c -0.0471,0.04536 -0.12582,0.01479 -0.12985,-0.05044 l -0.0564,-0.91119 c -0.004,-0.07179 -0.0965,-0.09847 -0.13876,-0.0402 l -0.52533,0.72502 c -0.0388,0.05353 -0.12268,0.03623 -0.13707,-0.02826 l -0.19572,-0.87724 c -0.0157,-0.07051 -0.11148,-0.08212 -0.14365,-0.01741 l -0.45905,0.92357 c -0.003,0.01064 -0.005,0.02091 -0.008,0.03155 l -0.10672,3.23109 c -9.8e-4,0.02946 0.0217,0.05384 0.0511,0.05621 0.31964,0.02581 0.63205,0.14933 0.88937,0.37057 0.0228,0.01958 0.0568,0.01813 0.0769,-0.00413 z"
   id="XMLID_157_"
   inkscape:connector-curvature="0"
   style="fill:#49559f" />

			</g>

		</g>

		<circle
   r="1.3618799"
   cy="5.8217402"
   cx="136.79895"
   id="XMLID_154_"
   style="fill:#49559f" />

	</g>

	<g
   id="XMLID_103_">
		<g
   id="XMLID_104_">
			<g
   id="XMLID_105_">
				<g
   id="XMLID_106_">
					<g
   id="XMLID_107_">
						<g
   id="XMLID_108_">
							<g
   id="XMLID_109_">
								<path
   d="m 29.20394,33.44936 c 0,5.19401 -4.0562,9.12907 -12.2225,9.12907 H 0 V 7.84529 h 16.0617 c 8.43719,0 11.30347,4.98453 11.30347,9.18171 0,4.45963 -2.27133,6.71575 -4.81355,7.8175 3.02868,0.94455 6.65232,3.4105 6.65232,8.60486 z M 4.05548,23.37573 H 16.0617 c 3.73214,0 7.24727,-1.78385 7.24727,-6.034 0,-2.8856 -1.89265,-5.7712 -6.81399,-5.7712 H 4.05548 Z m 21.09226,9.75854 c 0,-3.25296 -2.48761,-6.19085 -8.1663,-6.19085 H 4.05548 V 38.85318 H 17.414 c 4.92134,10e-6 7.73374,-2.09858 7.73374,-5.71891 z"
   id="XMLID_149_"
   inkscape:connector-curvature="0"
   style="fill:#49559f" />

								<path
   d="m 54.83741,35.02338 h 4.43488 c -1.89266,4.72173 -5.89497,7.9747 -12.331,7.9747 -8.27408,0 -13.68259,-6.03365 -13.68259,-13.53642 0,-7.50277 5.13762,-13.53642 13.41241,-13.53642 8.27479,0 13.41241,6.03365 13.41241,13.53642 v 1.57403 H 37.42269 c 0.59496,4.66945 4.11081,8.39469 9.57249,8.39469 3.78603,0 6.38214,-1.78385 7.84223,-4.407 z m -17.36012,-7.6603 h 18.38764 c -0.75735,-4.45963 -4.00231,-7.87013 -9.19382,-7.87013 -5.19222,-10e-6 -8.43718,3.4105 -9.19382,7.87013 z"
   id="XMLID_146_"
   inkscape:connector-curvature="0"
   style="fill:#49559f" />

								<path
   d="M 69.11352,42.57843 H 65.05731 V 5.85161 h 4.05621 z"
   id="XMLID_144_"
   inkscape:connector-curvature="0"
   style="fill:#49559f" />

								<path
   d="m 97.23532,20.59469 v -4.2498 h 4.05621 v 26.23354 h -4.05621 v -4.19717 c -2.00115,2.83297 -5.19222,4.61682 -9.68099,4.61682 -7.8954,0 -13.08763,-6.03365 -13.08763,-13.53642 0,-7.50277 5.19223,-13.53642 13.08763,-13.53642 4.48877,0 7.67984,1.83648 9.68099,4.66945 z m 0.21629,8.86697 c 0,-5.40418 -3.35346,-9.96872 -9.35621,-9.96872 -6.00347,0 -9.57249,4.56454 -9.57249,9.96872 0,5.40418 3.56902,9.96872 9.57249,9.96872 6.00274,0 9.35621,-4.56454 9.35621,-9.96872 z"
   id="XMLID_117_"
   inkscape:connector-curvature="0"
   style="fill:#49559f" />

								<path
   d="m 130.9812,16.34489 -10.54613,26.23354 h -4.75966 L 105.07539,16.34489 h 4.43488 l 8.54497,22.03637 8.49108,-22.03637 z"
   id="XMLID_115_"
   inkscape:connector-curvature="0"
   style="fill:#49559f" />

								<path
   d="m 134.76579,16.34489 h 4.0562 v 26.23354 h -4.0562 z"
   id="XMLID_113_"
   inkscape:connector-curvature="0"
   style="fill:#49559f" />

								<path
   d="m 166.9438,20.59469 v -4.2498 H 171 v 26.23354 h -4.0562 v -4.19717 c -2.00116,2.83297 -5.19223,4.61682 -9.681,4.61682 -7.8954,0 -13.08763,-6.03365 -13.08763,-13.53642 0,-7.50277 5.19223,-13.53642 13.08763,-13.53642 4.48877,0 7.67984,1.83648 9.681,4.66945 z m 0.21628,8.86697 c 0,-5.40418 -3.35345,-9.96872 -9.35622,-9.96872 -6.00346,0 -9.57249,4.56454 -9.57249,9.96872 0,5.40418 3.56903,9.96872 9.57249,9.96872 6.00277,0 9.35622,-4.56454 9.35622,-9.96872 z"
   id="XMLID_110_"
   inkscape:connector-curvature="0"
   style="fill:#49559f" />

							</g>

						</g>

					</g>

				</g>

			</g>

		</g>

	</g>

</g>
  </g>
</svg>
